<mxfile host="app.diagrams.net" modified="2024-03-12T11:27:30.771Z" agent="Mozilla/5.0 (Windows NT 10.0; Win64; x64) AppleWebKit/537.36 (KHTML, like Gecko) Chrome/121.0.0.0 Safari/537.36 OPR/107.0.0.0" etag="2QoGyvhxOJpUqtTkGMYT" version="24.0.5" type="device">
  <diagram name="Страница — 1" id="cvB2QZwHcd147_xpfMRb">
    <mxGraphModel dx="1388" dy="611" grid="0" gridSize="10" guides="1" tooltips="1" connect="1" arrows="1" fold="1" page="1" pageScale="1" pageWidth="1169" pageHeight="827" math="0" shadow="0">
      <root>
        <mxCell id="0" />
        <mxCell id="1" parent="0" />
        <mxCell id="oGIW9OtFVw5mNYpnQLsH-1" value="Пользователь" style="shape=umlActor;verticalLabelPosition=bottom;verticalAlign=top;html=1;outlineConnect=0;" parent="1" vertex="1">
          <mxGeometry x="160" y="353" width="30" height="60" as="geometry" />
        </mxCell>
        <mxCell id="oGIW9OtFVw5mNYpnQLsH-2" value="Зайти на сайт" style="ellipse;whiteSpace=wrap;html=1;" parent="1" vertex="1">
          <mxGeometry x="210" y="220" width="110" height="60" as="geometry" />
        </mxCell>
        <mxCell id="oGIW9OtFVw5mNYpnQLsH-3" value="Просмотреть каталог и выбрать товар" style="ellipse;whiteSpace=wrap;html=1;" parent="1" vertex="1">
          <mxGeometry x="290" y="270" width="110" height="60" as="geometry" />
        </mxCell>
        <mxCell id="oGIW9OtFVw5mNYpnQLsH-4" value="Выбрать размер" style="ellipse;whiteSpace=wrap;html=1;" parent="1" vertex="1">
          <mxGeometry x="320" y="330" width="110" height="60" as="geometry" />
        </mxCell>
        <mxCell id="oGIW9OtFVw5mNYpnQLsH-5" value="Добавить в корзину" style="ellipse;whiteSpace=wrap;html=1;" parent="1" vertex="1">
          <mxGeometry x="320" y="390" width="110" height="60" as="geometry" />
        </mxCell>
        <mxCell id="oGIW9OtFVw5mNYpnQLsH-6" value="Попросить взрослого оформить заказ" style="ellipse;whiteSpace=wrap;html=1;" parent="1" vertex="1">
          <mxGeometry x="280" y="450" width="110" height="60" as="geometry" />
        </mxCell>
        <mxCell id="oGIW9OtFVw5mNYpnQLsH-7" value="Оформить заказ" style="ellipse;whiteSpace=wrap;html=1;" parent="1" vertex="1">
          <mxGeometry x="210" y="500" width="110" height="60" as="geometry" />
        </mxCell>
        <mxCell id="oGIW9OtFVw5mNYpnQLsH-8" value="" style="endArrow=classic;html=1;rounded=0;exitX=0.5;exitY=0.5;exitDx=0;exitDy=0;exitPerimeter=0;entryX=0.406;entryY=0.986;entryDx=0;entryDy=0;entryPerimeter=0;" parent="1" source="oGIW9OtFVw5mNYpnQLsH-1" target="oGIW9OtFVw5mNYpnQLsH-2" edge="1">
          <mxGeometry width="50" height="50" relative="1" as="geometry">
            <mxPoint x="230" y="340" as="sourcePoint" />
            <mxPoint x="280" y="290" as="targetPoint" />
          </mxGeometry>
        </mxCell>
        <mxCell id="oGIW9OtFVw5mNYpnQLsH-9" value="" style="endArrow=classic;html=1;rounded=0;entryX=0.079;entryY=0.819;entryDx=0;entryDy=0;entryPerimeter=0;exitX=0.5;exitY=0.5;exitDx=0;exitDy=0;exitPerimeter=0;" parent="1" source="oGIW9OtFVw5mNYpnQLsH-1" target="oGIW9OtFVw5mNYpnQLsH-3" edge="1">
          <mxGeometry width="50" height="50" relative="1" as="geometry">
            <mxPoint x="230" y="340" as="sourcePoint" />
            <mxPoint x="280" y="290" as="targetPoint" />
          </mxGeometry>
        </mxCell>
        <mxCell id="oGIW9OtFVw5mNYpnQLsH-10" value="" style="endArrow=classic;html=1;rounded=0;exitX=0.5;exitY=0.5;exitDx=0;exitDy=0;exitPerimeter=0;entryX=0;entryY=0.5;entryDx=0;entryDy=0;" parent="1" source="oGIW9OtFVw5mNYpnQLsH-1" target="oGIW9OtFVw5mNYpnQLsH-4" edge="1">
          <mxGeometry width="50" height="50" relative="1" as="geometry">
            <mxPoint x="180" y="390" as="sourcePoint" />
            <mxPoint x="280" y="290" as="targetPoint" />
          </mxGeometry>
        </mxCell>
        <mxCell id="oGIW9OtFVw5mNYpnQLsH-11" value="" style="endArrow=classic;html=1;rounded=0;entryX=0;entryY=0.5;entryDx=0;entryDy=0;exitX=0.5;exitY=0.5;exitDx=0;exitDy=0;exitPerimeter=0;" parent="1" source="oGIW9OtFVw5mNYpnQLsH-1" target="oGIW9OtFVw5mNYpnQLsH-5" edge="1">
          <mxGeometry width="50" height="50" relative="1" as="geometry">
            <mxPoint x="230" y="340" as="sourcePoint" />
            <mxPoint x="280" y="290" as="targetPoint" />
          </mxGeometry>
        </mxCell>
        <mxCell id="oGIW9OtFVw5mNYpnQLsH-12" value="" style="endArrow=classic;html=1;rounded=0;entryX=0;entryY=0;entryDx=0;entryDy=0;exitX=0.5;exitY=0.5;exitDx=0;exitDy=0;exitPerimeter=0;" parent="1" source="oGIW9OtFVw5mNYpnQLsH-1" target="oGIW9OtFVw5mNYpnQLsH-6" edge="1">
          <mxGeometry width="50" height="50" relative="1" as="geometry">
            <mxPoint x="230" y="340" as="sourcePoint" />
            <mxPoint x="280" y="290" as="targetPoint" />
          </mxGeometry>
        </mxCell>
        <mxCell id="oGIW9OtFVw5mNYpnQLsH-13" value="" style="endArrow=classic;html=1;rounded=0;entryX=0.5;entryY=0;entryDx=0;entryDy=0;exitX=0.5;exitY=0.5;exitDx=0;exitDy=0;exitPerimeter=0;" parent="1" source="oGIW9OtFVw5mNYpnQLsH-1" target="oGIW9OtFVw5mNYpnQLsH-7" edge="1">
          <mxGeometry width="50" height="50" relative="1" as="geometry">
            <mxPoint x="230" y="340" as="sourcePoint" />
            <mxPoint x="280" y="290" as="targetPoint" />
          </mxGeometry>
        </mxCell>
        <mxCell id="oGIW9OtFVw5mNYpnQLsH-53" value="Пользователь" style="shape=umlActor;verticalLabelPosition=bottom;verticalAlign=top;html=1;outlineConnect=0;" parent="1" vertex="1">
          <mxGeometry x="480" y="346" width="30" height="60" as="geometry" />
        </mxCell>
        <mxCell id="oGIW9OtFVw5mNYpnQLsH-54" value="Зайти на сайт" style="ellipse;whiteSpace=wrap;html=1;" parent="1" vertex="1">
          <mxGeometry x="560" y="220" width="110" height="60" as="geometry" />
        </mxCell>
        <mxCell id="oGIW9OtFVw5mNYpnQLsH-55" value="Просмотреть каталог и выбрать товар" style="ellipse;whiteSpace=wrap;html=1;" parent="1" vertex="1">
          <mxGeometry x="620" y="280" width="110" height="60" as="geometry" />
        </mxCell>
        <mxCell id="oGIW9OtFVw5mNYpnQLsH-56" value="Выбрать размер" style="ellipse;whiteSpace=wrap;html=1;" parent="1" vertex="1">
          <mxGeometry x="640" y="340" width="110" height="60" as="geometry" />
        </mxCell>
        <mxCell id="oGIW9OtFVw5mNYpnQLsH-57" value="Добавить в корзину" style="ellipse;whiteSpace=wrap;html=1;" parent="1" vertex="1">
          <mxGeometry x="620" y="406" width="110" height="60" as="geometry" />
        </mxCell>
        <mxCell id="oGIW9OtFVw5mNYpnQLsH-58" value="Оформить заказ" style="ellipse;whiteSpace=wrap;html=1;" parent="1" vertex="1">
          <mxGeometry x="560" y="460" width="110" height="60" as="geometry" />
        </mxCell>
        <mxCell id="oGIW9OtFVw5mNYpnQLsH-60" value="" style="endArrow=classic;html=1;rounded=0;exitX=0.5;exitY=0.5;exitDx=0;exitDy=0;exitPerimeter=0;entryX=0.406;entryY=0.986;entryDx=0;entryDy=0;entryPerimeter=0;" parent="1" source="oGIW9OtFVw5mNYpnQLsH-53" target="oGIW9OtFVw5mNYpnQLsH-54" edge="1">
          <mxGeometry width="50" height="50" relative="1" as="geometry">
            <mxPoint x="550" y="333" as="sourcePoint" />
            <mxPoint x="600" y="283" as="targetPoint" />
          </mxGeometry>
        </mxCell>
        <mxCell id="oGIW9OtFVw5mNYpnQLsH-61" value="" style="endArrow=classic;html=1;rounded=0;entryX=0.079;entryY=0.819;entryDx=0;entryDy=0;entryPerimeter=0;exitX=0.5;exitY=0.5;exitDx=0;exitDy=0;exitPerimeter=0;" parent="1" source="oGIW9OtFVw5mNYpnQLsH-53" target="oGIW9OtFVw5mNYpnQLsH-55" edge="1">
          <mxGeometry width="50" height="50" relative="1" as="geometry">
            <mxPoint x="550" y="333" as="sourcePoint" />
            <mxPoint x="600" y="283" as="targetPoint" />
          </mxGeometry>
        </mxCell>
        <mxCell id="oGIW9OtFVw5mNYpnQLsH-62" value="" style="endArrow=classic;html=1;rounded=0;exitX=0.5;exitY=0.5;exitDx=0;exitDy=0;exitPerimeter=0;entryX=0;entryY=0.5;entryDx=0;entryDy=0;" parent="1" source="oGIW9OtFVw5mNYpnQLsH-53" target="oGIW9OtFVw5mNYpnQLsH-56" edge="1">
          <mxGeometry width="50" height="50" relative="1" as="geometry">
            <mxPoint x="500" y="383" as="sourcePoint" />
            <mxPoint x="600" y="283" as="targetPoint" />
          </mxGeometry>
        </mxCell>
        <mxCell id="oGIW9OtFVw5mNYpnQLsH-63" value="" style="endArrow=classic;html=1;rounded=0;entryX=0;entryY=0.5;entryDx=0;entryDy=0;exitX=0.5;exitY=0.5;exitDx=0;exitDy=0;exitPerimeter=0;" parent="1" source="oGIW9OtFVw5mNYpnQLsH-53" target="oGIW9OtFVw5mNYpnQLsH-57" edge="1">
          <mxGeometry width="50" height="50" relative="1" as="geometry">
            <mxPoint x="550" y="333" as="sourcePoint" />
            <mxPoint x="600" y="283" as="targetPoint" />
          </mxGeometry>
        </mxCell>
        <mxCell id="oGIW9OtFVw5mNYpnQLsH-64" value="" style="endArrow=classic;html=1;rounded=0;entryX=0;entryY=0;entryDx=0;entryDy=0;exitX=0.5;exitY=0.5;exitDx=0;exitDy=0;exitPerimeter=0;" parent="1" source="oGIW9OtFVw5mNYpnQLsH-53" target="oGIW9OtFVw5mNYpnQLsH-58" edge="1">
          <mxGeometry width="50" height="50" relative="1" as="geometry">
            <mxPoint x="550" y="333" as="sourcePoint" />
            <mxPoint x="600" y="283" as="targetPoint" />
          </mxGeometry>
        </mxCell>
        <mxCell id="oGIW9OtFVw5mNYpnQLsH-66" value="Пользователь" style="shape=umlActor;verticalLabelPosition=bottom;verticalAlign=top;html=1;outlineConnect=0;" parent="1" vertex="1">
          <mxGeometry x="810" y="333" width="30" height="60" as="geometry" />
        </mxCell>
        <mxCell id="oGIW9OtFVw5mNYpnQLsH-67" value="Зайти на сайт" style="ellipse;whiteSpace=wrap;html=1;" parent="1" vertex="1">
          <mxGeometry x="860" y="200" width="110" height="60" as="geometry" />
        </mxCell>
        <mxCell id="oGIW9OtFVw5mNYpnQLsH-68" value="Выбрать критерии&lt;div&gt;поиска товара&lt;/div&gt;" style="ellipse;whiteSpace=wrap;html=1;" parent="1" vertex="1">
          <mxGeometry x="940" y="250" width="128" height="60" as="geometry" />
        </mxCell>
        <mxCell id="oGIW9OtFVw5mNYpnQLsH-69" value="Просмотреть каталог и выбрать товар" style="ellipse;whiteSpace=wrap;html=1;" parent="1" vertex="1">
          <mxGeometry x="970" y="310" width="110" height="60" as="geometry" />
        </mxCell>
        <mxCell id="oGIW9OtFVw5mNYpnQLsH-70" value="Выбрать размер" style="ellipse;whiteSpace=wrap;html=1;" parent="1" vertex="1">
          <mxGeometry x="970" y="370" width="110" height="60" as="geometry" />
        </mxCell>
        <mxCell id="oGIW9OtFVw5mNYpnQLsH-71" value="Добавить в корзину" style="ellipse;whiteSpace=wrap;html=1;" parent="1" vertex="1">
          <mxGeometry x="930" y="430" width="110" height="60" as="geometry" />
        </mxCell>
        <mxCell id="oGIW9OtFVw5mNYpnQLsH-72" value="Оформить заказ" style="ellipse;whiteSpace=wrap;html=1;" parent="1" vertex="1">
          <mxGeometry x="860" y="480" width="110" height="60" as="geometry" />
        </mxCell>
        <mxCell id="oGIW9OtFVw5mNYpnQLsH-73" value="" style="endArrow=classic;html=1;rounded=0;exitX=0.5;exitY=0.5;exitDx=0;exitDy=0;exitPerimeter=0;entryX=0.406;entryY=0.986;entryDx=0;entryDy=0;entryPerimeter=0;" parent="1" source="oGIW9OtFVw5mNYpnQLsH-66" target="oGIW9OtFVw5mNYpnQLsH-67" edge="1">
          <mxGeometry width="50" height="50" relative="1" as="geometry">
            <mxPoint x="880" y="320" as="sourcePoint" />
            <mxPoint x="930" y="270" as="targetPoint" />
          </mxGeometry>
        </mxCell>
        <mxCell id="oGIW9OtFVw5mNYpnQLsH-74" value="" style="endArrow=classic;html=1;rounded=0;entryX=0.079;entryY=0.819;entryDx=0;entryDy=0;entryPerimeter=0;exitX=0.5;exitY=0.5;exitDx=0;exitDy=0;exitPerimeter=0;" parent="1" source="oGIW9OtFVw5mNYpnQLsH-66" target="oGIW9OtFVw5mNYpnQLsH-68" edge="1">
          <mxGeometry width="50" height="50" relative="1" as="geometry">
            <mxPoint x="880" y="320" as="sourcePoint" />
            <mxPoint x="930" y="270" as="targetPoint" />
          </mxGeometry>
        </mxCell>
        <mxCell id="oGIW9OtFVw5mNYpnQLsH-75" value="" style="endArrow=classic;html=1;rounded=0;exitX=0.5;exitY=0.5;exitDx=0;exitDy=0;exitPerimeter=0;entryX=0;entryY=0.5;entryDx=0;entryDy=0;" parent="1" source="oGIW9OtFVw5mNYpnQLsH-66" target="oGIW9OtFVw5mNYpnQLsH-69" edge="1">
          <mxGeometry width="50" height="50" relative="1" as="geometry">
            <mxPoint x="830" y="370" as="sourcePoint" />
            <mxPoint x="930" y="270" as="targetPoint" />
          </mxGeometry>
        </mxCell>
        <mxCell id="oGIW9OtFVw5mNYpnQLsH-76" value="" style="endArrow=classic;html=1;rounded=0;entryX=0;entryY=0.5;entryDx=0;entryDy=0;exitX=0.5;exitY=0.5;exitDx=0;exitDy=0;exitPerimeter=0;" parent="1" source="oGIW9OtFVw5mNYpnQLsH-66" target="oGIW9OtFVw5mNYpnQLsH-70" edge="1">
          <mxGeometry width="50" height="50" relative="1" as="geometry">
            <mxPoint x="880" y="320" as="sourcePoint" />
            <mxPoint x="930" y="270" as="targetPoint" />
          </mxGeometry>
        </mxCell>
        <mxCell id="oGIW9OtFVw5mNYpnQLsH-77" value="" style="endArrow=classic;html=1;rounded=0;entryX=0;entryY=0;entryDx=0;entryDy=0;exitX=0.5;exitY=0.5;exitDx=0;exitDy=0;exitPerimeter=0;" parent="1" source="oGIW9OtFVw5mNYpnQLsH-66" target="oGIW9OtFVw5mNYpnQLsH-71" edge="1">
          <mxGeometry width="50" height="50" relative="1" as="geometry">
            <mxPoint x="880" y="320" as="sourcePoint" />
            <mxPoint x="930" y="270" as="targetPoint" />
          </mxGeometry>
        </mxCell>
        <mxCell id="oGIW9OtFVw5mNYpnQLsH-78" value="" style="endArrow=classic;html=1;rounded=0;entryX=0.5;entryY=0;entryDx=0;entryDy=0;exitX=0.5;exitY=0.5;exitDx=0;exitDy=0;exitPerimeter=0;" parent="1" source="oGIW9OtFVw5mNYpnQLsH-66" target="oGIW9OtFVw5mNYpnQLsH-72" edge="1">
          <mxGeometry width="50" height="50" relative="1" as="geometry">
            <mxPoint x="880" y="320" as="sourcePoint" />
            <mxPoint x="930" y="270" as="targetPoint" />
          </mxGeometry>
        </mxCell>
      </root>
    </mxGraphModel>
  </diagram>
</mxfile>
